<svg xmlns="http://www.w3.org/2000/svg" viewBox="0 0 300 300">
  <path fill="#FF0000" d="M293.4,78.1c-4.3-4.3-11.4-4.3-15.7,0L153.9,201.9l-55.8-55.8c-4.3-4.3-11.4-4.3-15.7,0
    c-4.3,4.3-4.3,11.4,0,15.7l63.6,63.6c2.2,2.2,5,3.2,7.8,3.2c2.8,0,5.7-1.1,7.8-3.2L293.4,93.8C297.7,89.5,297.7,82.4,293.4,78.1z"/>
  <path fill="#FF0000" d="M230.8,169.2c-6.2,0-11.2,5-11.2,11.2v86.3H26.9V80.4h86.3c6.2,0,11.2-5,11.2-11.2s-5-11.2-11.2-11.2H15.7
    C7,58,0,65,0,73.7v200c0,8.7,7,15.7,15.7,15.7h215.1c8.7,0,15.7-7,15.7-15.7v-97.5C246.5,174.2,237,169.2,230.8,169.2z"/>
</svg>